<?xml version="1.0" standalone="no"?>
<!DOCTYPE svg PUBLIC "-//W3C//DTD SVG 20010904//EN"
 "http://www.w3.org/TR/2001/REC-SVG-20010904/DTD/svg10.dtd">
<svg version="1.0" xmlns="http://www.w3.org/2000/svg"
 width="1050.000000pt" height="600.000000pt" viewBox="0 0 1050.000000 600.000000"
 preserveAspectRatio="xMidYMid meet">

<g transform="translate(0.000000,600.000000) scale(0.100000,-0.100000)"
fill="#000000" stroke="none">
<path d="M4910 5875 c-1145 -144 -2077 -917 -2423 -2013 -42 -131 -78 -291
-104 -452 -26 -165 -26 -645 0 -810 52 -330 137 -607 273 -880 386 -777 1096
-1337 1944 -1534 413 -96 912 -94 1315 4 960 234 1724 920 2057 1845 125 348
179 734 158 1135 -11 198 -22 280 -61 464 -88 405 -282 813 -548 1156 -90 116
-314 345 -439 448 -159 131 -366 264 -556 357 -290 142 -509 211 -856 271
-134 23 -602 28 -760 9z m725 -104 c619 -93 1161 -364 1588 -795 444 -448 709
-989 799 -1626 20 -144 17 -574 -5 -725 -89 -607 -346 -1132 -767 -1569 -349
-362 -824 -639 -1306 -760 -264 -67 -479 -90 -769 -83 -302 8 -522 44 -785
129 -605 196 -1122 590 -1482 1130 -80 120 -232 420 -283 561 -328 900 -182
1888 393 2656 115 154 391 430 543 544 452 337 965 526 1524 561 130 8 424 -4
550 -23z"/>
<path d="M6336 5524 c-4 -11 10 -33 43 -69 27 -28 58 -70 70 -93 25 -49 51
-152 51 -205 0 -62 23 -101 78 -135 61 -37 79 -62 91 -128 13 -66 23 -91 60
-141 31 -43 45 -50 69 -35 10 7 7 19 -12 53 -13 24 -34 78 -46 119 -21 69 -28
80 -95 145 l-73 70 -4 101 c-3 93 -6 107 -38 170 -26 51 -50 80 -95 116 -62
50 -89 59 -99 32z"/>
<path d="M6112 5249 c-140 -174 -191 -244 -183 -252 8 -8 23 0 54 30 73 70
139 115 151 103 18 -18 -23 -77 -96 -137 -38 -31 -67 -58 -64 -60 2 -2 21 3
42 12 52 22 211 64 218 58 15 -16 -20 -42 -123 -91 l-116 -56 123 -12 c68 -7
130 -18 137 -24 38 -31 -39 -60 -160 -60 -61 0 -86 -12 -47 -24 128 -38 531
-56 664 -30 l27 5 -33 43 c-18 24 -38 65 -45 92 -26 99 -33 114 -63 136 -70
53 -106 94 -111 128 -21 147 -30 189 -54 238 -24 51 -102 142 -120 142 -5 0
-95 -109 -201 -241z m292 0 c6 -81 4 -111 -8 -98 -7 8 -13 189 -6 189 4 0 10
-41 14 -91z m-45 -26 c13 -87 13 -96 2 -89 -4 3 -11 34 -14 68 -4 35 -10 74
-13 88 -5 17 -3 22 4 15 5 -5 15 -42 21 -82z m-35 -35 c4 -37 2 -58 -4 -58 -5
0 -10 15 -10 33 0 17 -3 50 -6 72 -3 27 -2 35 4 25 5 -8 12 -41 16 -72z m-45
-38 c0 -23 -1 -23 -9 -5 -5 11 -9 31 -9 45 0 23 1 23 9 5 5 -11 9 -31 9 -45z
m-40 -25 l0 -20 -9 20 c-5 11 -9 27 -9 35 -1 13 0 13 9 0 5 -8 9 -24 9 -35z
m371 -340 c23 -15 40 -29 37 -31 -5 -6 -107 54 -107 63 0 8 24 -3 70 -32z
m-58 -4 c40 -26 68 -51 55 -51 -5 0 -107 67 -116 76 -15 15 23 -1 61 -25z
m-121 3 c17 -8 29 -18 26 -20 -3 -3 -22 4 -44 15 -21 11 -32 20 -25 21 7 0 27
-7 43 -16z m59 -4 c37 -28 20 -32 -20 -4 -19 13 -28 24 -20 24 8 0 26 -9 40
-20z"/>
<path d="M5246 5303 c-8 -8 53 -73 70 -73 6 0 17 7 24 15 7 8 17 15 23 15 6 0
0 -11 -13 -25 -35 -37 -16 -42 26 -6 51 41 58 30 8 -13 l-39 -34 240 -239
c132 -131 277 -271 323 -312 l82 -73 0 70 c0 49 -4 73 -14 79 -7 4 -20 21 -28
37 -15 29 -16 29 -22 8 -4 -12 -12 -22 -17 -22 -5 0 -3 13 6 30 8 16 15 34 15
40 0 15 -26 12 -40 -6 -8 -8 -23 -20 -34 -25 -12 -6 -3 7 20 28 29 27 39 43
35 56 -8 22 -93 83 -137 97 -19 7 -34 16 -34 21 0 10 30 0 90 -31 l41 -21 -17
26 c-9 14 -38 39 -65 57 -65 41 -54 50 12 10 58 -37 59 -37 59 -16 0 20 -99
124 -170 179 -70 54 -160 99 -237 119 -61 16 -194 22 -207 9z"/>
<path d="M5080 5266 c-78 -27 -96 -36 -181 -92 l-66 -43 136 -138 c75 -76 239
-244 364 -373 141 -146 230 -230 236 -225 5 6 11 24 14 40 2 19 5 11 6 -22 2
-95 31 -68 31 30 0 27 5 47 11 47 10 0 6 -96 -7 -141 -3 -10 28 -45 85 -97
l89 -82 29 33 c43 50 91 128 118 196 l25 61 -72 68 c-345 321 -715 690 -743
742 -10 18 -12 18 -75 -4z m597 -830 c-3 -41 -11 -83 -17 -93 -9 -15 -10 -12
-5 17 3 19 8 61 12 93 9 83 17 70 10 -17z m39 -16 c-8 -25 -14 -36 -15 -25 -1
28 22 103 26 85 2 -8 -3 -35 -11 -60z m67 29 c-6 -22 -33 -47 -33 -31 0 6 5
14 10 17 6 3 10 18 10 33 0 19 3 23 9 13 5 -7 6 -22 4 -32z"/>
<path d="M6043 5051 c-68 -57 -100 -91 -85 -91 11 0 161 139 150 140 -4 0 -33
-22 -65 -49z"/>
<path d="M4726 5018 c-55 -62 -118 -183 -120 -230 -1 -30 14 -47 174 -200 96
-91 276 -268 399 -392 124 -124 232 -226 240 -226 32 0 145 41 211 76 117 61
118 52 -30 187 -71 65 -258 251 -416 415 -158 163 -315 326 -349 360 l-62 64
-47 -54z m-1 -147 c12 -27 15 -49 10 -72 l-7 -33 -19 35 c-10 18 -18 41 -18
49 0 8 8 -1 19 -20 25 -46 25 -17 0 38 -10 23 -15 42 -11 42 4 0 16 -18 26
-39z m-15 -114 c0 -7 -11 2 -25 18 -32 39 -32 58 0 22 14 -15 25 -33 25 -40z"/>
<path d="M6085 4946 c-98 -33 -105 -36 -105 -52 0 -8 2 -14 5 -14 6 0 188 81
194 86 11 10 -31 1 -94 -20z"/>
<path d="M6016 4823 c-3 -4 -6 -12 -6 -20 0 -10 24 -13 105 -13 65 0 105 4
105 10 0 6 -6 12 -12 14 -24 8 -186 15 -192 9z"/>
<path d="M4580 4567 c0 -69 4 -98 14 -106 12 -10 15 -3 21 37 3 26 11 54 17
62 7 11 8 7 4 -16 -16 -97 -18 -134 -7 -134 7 0 20 19 31 43 13 29 19 36 19
21 1 -12 -11 -38 -25 -59 -24 -35 -24 -40 -11 -74 11 -28 26 -42 68 -63 30
-15 63 -30 74 -34 12 -4 15 -8 8 -11 -7 -3 -39 7 -70 21 l-58 26 39 -35 c21
-19 59 -44 83 -56 24 -12 42 -23 39 -26 -5 -6 -83 30 -115 54 -23 17 -24 17
-17 -7 12 -42 105 -119 201 -166 110 -54 224 -84 321 -84 l73 0 -241 245
c-132 135 -292 293 -354 351 l-114 106 0 -95z"/>
<path d="M3818 4513 c-33 -5 -32 -2 -11 -70 23 -72 56 -109 163 -182 49 -34
96 -74 104 -89 19 -36 23 -92 12 -180 -7 -67 -6 -76 18 -122 29 -55 33 -86 22
-175 -10 -88 1 -98 61 -50 77 63 301 285 348 345 23 30 56 80 73 110 30 53 31
69 6 99 -1 2 -26 -20 -54 -48 -53 -53 -93 -72 -113 -52 -17 17 18 75 82 132
77 69 69 80 -52 72 -141 -9 -190 10 -104 41 23 8 73 18 110 21 64 6 67 8 61
28 -3 12 -8 24 -10 26 -9 10 -251 63 -349 75 -120 16 -324 27 -367 19z m325
-212 c20 -12 37 -26 37 -31 0 -4 -27 8 -60 27 -33 20 -60 40 -60 46 0 5 10 3
23 -5 12 -8 39 -24 60 -37z m58 23 c17 -8 29 -18 26 -20 -3 -3 -22 4 -44 15
-21 11 -32 20 -25 21 7 0 27 -7 43 -16z m-158 -11 c49 -25 108 -65 103 -70 -5
-5 -146 76 -146 83 0 7 11 4 43 -13z m62 -74 c20 -19 -10 -7 -76 29 -38 20
-69 41 -69 45 0 8 124 -56 145 -74z m161 -254 c9 -37 -2 -41 -14 -6 -7 18 -7
31 -2 31 5 0 12 -11 16 -25z m-36 -44 c-1 -10 -6 -7 -15 9 -19 33 -18 50 0 26
8 -11 15 -27 15 -35z m-50 9 c18 -43 7 -47 -13 -5 -9 19 -13 35 -8 35 5 0 14
-14 21 -30z"/>
<path d="M3703 4456 c10 -104 65 -174 188 -241 106 -59 134 -106 118 -201 -15
-90 -10 -132 22 -207 22 -53 29 -81 25 -107 -18 -108 -18 -120 -6 -135 10 -12
16 -11 40 7 24 17 27 25 19 40 -6 11 -7 52 -3 103 6 79 5 89 -21 147 -28 61
-28 64 -16 149 18 140 16 144 -163 271 -74 53 -99 88 -122 171 -16 55 -18 57
-52 57 l-35 0 6 -54z"/>
<path d="M4390 4330 c-19 -12 77 -13 135 -1 35 8 29 9 -40 10 -44 0 -87 -4
-95 -9z"/>
<path d="M4524 4196 c-55 -57 -65 -76 -39 -76 15 0 115 95 115 110 0 28 -28
16 -76 -34z"/>
<path d="M5477 3589 c-26 -15 -39 -47 -143 -341 -124 -354 -146 -394 -230
-423 -74 -25 -107 4 -124 108 -7 49 -6 54 25 97 52 71 72 86 95 72 80 -50 167
48 110 121 -43 54 -130 43 -225 -30 -38 -28 -49 -33 -56 -22 -5 8 -9 17 -9 21
0 4 -14 23 -31 42 -54 63 -137 66 -192 8 -14 -15 -42 -70 -61 -125 -60 -165
-82 -196 -147 -212 -40 -10 -45 10 -16 63 34 62 51 133 43 177 -9 46 -67 110
-113 126 -56 18 -137 14 -188 -11 -69 -34 -98 -77 -150 -229 -40 -115 -53
-142 -86 -174 -46 -45 -82 -48 -87 -6 -2 14 36 131 83 260 100 272 107 305 73
368 -54 101 -204 121 -305 41 l-26 -21 -26 25 c-55 51 -119 61 -181 27 -35
-18 -36 -18 -59 0 -32 26 -84 24 -115 -3 -18 -17 -58 -115 -155 -391 -72 -202
-131 -381 -131 -397 0 -61 62 -88 121 -53 33 20 23 -4 148 344 100 279 119
322 152 339 24 14 63 12 77 -2 24 -24 10 -81 -84 -339 -52 -145 -96 -277 -96
-293 -1 -36 32 -66 73 -66 61 0 80 34 184 330 54 151 107 292 119 313 44 81
136 91 136 15 0 -15 -34 -121 -76 -235 -84 -230 -93 -283 -58 -343 44 -77 165
-103 261 -55 l51 26 43 -23 c90 -46 213 -32 274 32 24 25 36 30 78 30 69 0
121 18 167 57 58 50 79 85 120 195 39 107 44 109 75 35 l15 -36 -90 -128 c-57
-81 -90 -137 -90 -154 0 -47 54 -74 99 -49 10 5 37 39 61 75 23 36 44 65 45
65 2 0 13 -21 25 -46 42 -86 149 -125 247 -91 39 13 43 13 59 -4 33 -37 107
-12 126 42 4 11 10 10 29 -8 78 -72 260 -69 355 6 20 16 41 21 88 21 105 0
187 52 235 149 10 20 28 65 41 101 29 83 33 87 64 66 32 -21 32 -39 0 -123
-47 -123 -31 -204 48 -244 54 -28 127 -23 183 13 l40 25 37 -24 c45 -30 134
-40 198 -23 27 7 59 26 81 48 35 36 39 37 105 37 63 -1 72 -3 102 -32 85 -81
293 -95 439 -28 91 41 193 168 193 239 0 28 -33 56 -67 56 -22 0 -31 -9 -84
-92 -16 -25 -40 -53 -52 -61 -22 -14 -22 -13 -23 29 -1 31 -16 72 -53 145
l-51 102 25 23 c25 23 32 63 19 99 -10 26 -62 48 -99 41 -41 -8 -62 -32 -120
-140 -26 -48 -65 -106 -86 -127 -21 -21 -50 -57 -64 -79 -14 -22 -37 -45 -51
-50 -57 -22 -68 -5 -35 52 46 78 55 174 22 235 -43 81 -189 111 -288 59 -66
-34 -90 -75 -158 -269 -38 -109 -83 -177 -118 -177 -29 0 -26 29 15 146 36
106 39 121 29 155 -13 43 -52 77 -124 108 -41 18 -47 24 -47 50 0 33 -48 81
-81 81 -74 0 -122 -89 -88 -164 10 -21 5 -41 -31 -136 -30 -78 -52 -118 -72
-135 -35 -30 -63 -33 -53 -7 33 86 29 178 -10 235 l-23 35 29 28 c75 72 101
197 57 275 -39 70 -161 110 -242 79 -21 -8 -30 -5 -50 15 -26 26 -68 32 -99
14z m231 -181 c19 -16 14 -72 -9 -102 -19 -24 -24 -26 -74 -20 -66 8 -99 -10
-121 -63 -12 -28 -13 -42 -4 -69 15 -45 48 -66 107 -68 40 -1 49 -5 60 -26 10
-20 9 -64 -2 -78 -1 -2 -18 6 -36 17 -47 28 -108 39 -163 31 -25 -4 -46 -4
-46 0 0 24 122 337 138 352 40 41 115 53 150 26z m-1350 -260 c28 -28 3 -118
-33 -118 -12 0 -34 -12 -49 -26 -32 -32 -36 -96 -9 -127 17 -18 17 -20 -10
-43 -51 -43 -104 -20 -93 41 13 67 86 251 107 268 24 20 69 23 87 5z m2342 -8
c7 -14 7 -33 -1 -65 -9 -36 -16 -45 -33 -45 -34 0 -64 -27 -77 -71 -11 -36
-10 -42 11 -71 l23 -31 -27 -24 c-15 -13 -36 -23 -46 -23 -23 0 -50 26 -50 49
0 35 81 255 102 278 28 30 83 32 98 3z m460 -207 c23 -80 -20 -140 -90 -127
-16 4 -35 13 -41 20 -9 11 -6 14 16 14 16 0 38 12 57 30 26 26 29 36 26 73 -3
23 -8 51 -12 62 -6 16 -4 15 12 -5 12 -14 26 -44 32 -67z m-1585 -49 c33 -21
31 -30 -7 -54 -77 -47 -164 -6 -111 52 20 23 85 24 118 2z"/>
<path d="M3312 2157 c-44 -17 -98 -61 -127 -105 -39 -60 -175 -464 -175 -520
1 -62 27 -118 78 -164 65 -59 103 -71 217 -72 87 -1 108 2 164 26 l64 27 34
-26 c51 -39 123 -42 187 -9 l49 25 29 -22 c26 -19 44 -22 146 -24 64 -1 124 3
134 8 25 13 38 42 104 228 64 182 97 234 143 229 37 -4 33 -37 -18 -180 -47
-133 -50 -171 -18 -219 47 -71 152 -90 241 -45 l47 24 42 -24 c56 -32 119 -32
182 0 l48 25 30 -21 c44 -32 122 -36 182 -9 45 20 48 20 76 4 16 -10 29 -20
29 -24 0 -3 -20 -12 -45 -19 -112 -31 -182 -111 -172 -196 18 -164 265 -204
379 -62 17 20 45 75 63 123 l32 87 56 23 c87 35 138 69 195 129 56 59 112 163
112 208 0 48 -45 72 -90 48 -11 -6 -33 -39 -50 -74 -20 -43 -49 -81 -86 -115
-54 -50 -81 -64 -72 -38 126 360 142 415 129 441 -19 34 -59 47 -98 31 -34
-15 -38 -23 -117 -262 -40 -121 -53 -147 -82 -173 -38 -33 -71 -39 -80 -15 -4
9 21 93 55 188 33 95 61 187 61 203 0 59 -78 91 -120 48 -10 -10 -48 -102 -84
-203 -70 -199 -96 -240 -152 -244 -23 -2 -30 2 -32 20 -2 12 44 158 102 325
58 167 108 315 111 330 9 34 -31 78 -70 78 -44 0 -68 -38 -119 -185 -27 -77
-50 -141 -51 -143 -2 -2 -19 7 -39 19 -44 26 -119 28 -163 6 -52 -27 -78 -70
-128 -208 -59 -165 -65 -178 -110 -218 -38 -33 -72 -40 -81 -16 -4 8 15 75 41
149 26 74 47 150 47 170 0 46 -29 95 -70 119 -37 22 -117 26 -149 8 -16 -8
-28 -7 -51 4 -32 16 -68 10 -90 -17 -6 -8 -41 -96 -76 -196 -36 -101 -70 -191
-75 -201 -13 -23 -77 -55 -97 -47 -23 9 -17 33 46 215 33 95 60 185 60 200 0
15 -9 36 -19 45 -25 23 -86 23 -110 2 -15 -14 -24 -15 -47 -6 -51 20 -127 15
-173 -11 -54 -30 -63 -46 -117 -201 -36 -103 -55 -141 -82 -170 -62 -65 -169
-86 -247 -48 -47 23 -68 55 -67 100 0 17 33 121 73 231 75 209 94 239 146 239
31 0 42 -31 30 -87 -9 -39 -8 -46 13 -68 50 -53 128 -17 151 69 26 95 -9 184
-88 222 -46 22 -146 28 -191 11z m516 -419 c19 -19 14 -56 -24 -172 -47 -141
-93 -189 -127 -134 -13 20 56 256 86 294 20 26 46 31 65 12z m1068 -13 c9 -34
-2 -83 -36 -166 -35 -86 -55 -111 -89 -107 -19 2 -27 10 -29 28 -3 26 59 209
84 248 20 31 62 30 70 -3z m359 -582 c-10 -41 -33 -73 -60 -83 -33 -12 -55 -3
-55 24 0 31 11 43 56 66 55 27 68 26 59 -7z"/>
<path d="M6340 2161 c-68 -21 -123 -66 -154 -129 -31 -61 -157 -426 -162 -472
-13 -98 48 -196 148 -241 45 -20 69 -24 153 -24 92 0 106 3 168 32 l68 32 43
-30 c83 -59 218 -49 287 19 33 34 40 37 87 34 101 -6 208 68 247 172 17 43 17
51 4 75 -16 29 -61 40 -84 21 -8 -6 -27 -35 -44 -64 -20 -36 -41 -58 -64 -69
-67 -32 -84 -17 -48 45 46 78 55 174 22 235 -56 106 -251 115 -342 16 -35 -37
-43 -54 -85 -175 -43 -124 -67 -158 -136 -192 -117 -59 -258 -10 -258 89 0 30
115 366 146 427 24 46 79 63 105 32 10 -13 10 -24 1 -61 -11 -39 -10 -49 3
-69 18 -28 58 -40 94 -28 57 20 90 149 57 227 -34 82 -155 128 -256 98z m540
-421 c7 -14 7 -33 -1 -65 -9 -36 -16 -45 -33 -45 -34 0 -64 -27 -77 -71 -11
-36 -10 -42 11 -71 l23 -31 -27 -24 c-15 -13 -36 -23 -46 -23 -23 0 -50 26
-50 49 0 35 81 255 102 278 28 30 83 32 98 3z"/>
<path d="M7254 1450 c-28 -11 -54 -48 -54 -76 0 -13 12 -36 26 -53 33 -40 83
-43 119 -6 35 34 33 78 -4 116 -30 30 -50 34 -87 19z"/>
</g>
</svg>
